<?xml version="1.0" encoding="UTF-8"?>
<svg version="1.1" xmlns="http://www.w3.org/2000/svg" width="259" height="194">
<path d="M0 0 C85.47 0 170.94 0 259 0 C259 64.02 259 128.04 259 194 C173.53 194 88.06 194 0 194 C0 129.98 0 65.96 0 0 Z " fill="#FEFEFE" transform="translate(0,0)"/>
<path d="M0 0 C3.15220829 5.62894337 2.40226797 10.32677039 0.96875 16.4765625 C-3.87800332 32.64394679 -13.13659312 46.77705347 -23.25 60.125 C-24.06005994 61.21211732 -24.86995651 62.29935639 -25.6796875 63.38671875 C-30.00192988 69.14047118 -34.51373562 74.71577585 -39.1875 80.1875 C-39.62884277 80.70441406 -40.07018555 81.22132812 -40.52490234 81.75390625 C-49.29700301 91.90354701 -58.52797488 101.58961291 -68.01123047 111.0715332 C-69.75388317 112.81638808 -71.48833163 114.56913743 -73.22265625 116.32226562 C-79.92530696 123.05807634 -86.79661895 129.21943826 -94.25 135.125 C-95.35207624 136.05948704 -96.44841056 137.00085305 -97.53515625 137.953125 C-115.39200669 153.52449951 -141.33784317 176.00131765 -166.25 176.375 C-167.796875 176.41367187 -167.796875 176.41367187 -169.375 176.453125 C-172.6305122 176.08157198 -173.94122976 175.41239274 -176.25 173.125 C-179.58313348 163.12559955 -175.59923218 153.68755553 -171.17773438 144.71899414 C-169.56296459 141.50606889 -167.91482206 138.31228404 -166.25 135.125 C-163.25 135.125 -163.25 135.125 -160.5625 137.625 C-159.799375 138.45 -159.03625 139.275 -158.25 140.125 C-158.58 141.115 -158.91 142.105 -159.25 143.125 C-159.34435979 145.12320728 -159.37990301 147.12457203 -159.375 149.125 C-159.37757813 150.176875 -159.38015625 151.22875 -159.3828125 152.3125 C-159.37353635 155.20626878 -159.37353635 155.20626878 -158.25 158.125 C-153.39565389 160.26091229 -147.48148695 159.49405347 -142.57421875 158.0234375 C-132.21681835 153.68467686 -122.6345142 148.88087259 -113.4140625 142.42578125 C-112.81827393 142.01090454 -112.22248535 141.59602783 -111.60864258 141.1685791 C-110.15460493 140.15571135 -108.7021384 139.14058879 -107.25 138.125 C-107.81296783 138.12135437 -108.37593567 138.11770874 -108.95596313 138.11395264 C-114.82896834 138.07205917 -120.70119702 138.00266601 -126.57373047 137.91748047 C-128.76375553 137.8892994 -130.95388177 137.86807066 -133.14404297 137.85400391 C-136.29707527 137.83253523 -139.44889485 137.78586325 -142.6015625 137.734375 C-143.57678864 137.73314636 -144.55201477 137.73191772 -145.55679321 137.73065186 C-151.24957118 137.60870335 -154.84557982 137.09707923 -159.25 133.125 C-162.44249806 128.93547112 -162.68507846 125.22095885 -162.65405273 120.12524414 C-162.66091599 119.33435898 -162.66777924 118.54347382 -162.67485046 117.72862244 C-162.69310555 115.12228282 -162.68928286 112.5165459 -162.68359375 109.91015625 C-162.68815624 108.09321396 -162.69346202 106.27627339 -162.69947815 104.45933533 C-162.70840676 100.6538898 -162.70598906 96.84865417 -162.69604492 93.04321289 C-162.6845567 88.17291663 -162.7047656 83.30334557 -162.73396206 78.43314457 C-162.75233177 74.68154824 -162.75203005 70.93012544 -162.74632454 67.17849541 C-162.74617141 65.38319316 -162.75220862 63.58787908 -162.76461601 61.79261971 C-162.77953873 59.27933745 -162.7688404 56.7673916 -162.75170898 54.25415039 C-162.76621094 53.14814987 -162.76621094 53.14814987 -162.78100586 52.01980591 C-162.70838922 46.91749249 -161.54745679 43.99818886 -158.25 40.125 C-154.63588549 37.54004498 -152.16949493 36.74999532 -147.74707031 36.7507782 C-146.65358276 36.74376389 -145.56009521 36.73674957 -144.43347168 36.72952271 C-142.64882507 36.74098831 -142.64882507 36.74098831 -140.828125 36.75268555 C-139.56746216 36.74903488 -138.30679932 36.74538422 -137.00793457 36.74162292 C-133.55748946 36.73223334 -130.10732898 36.74162289 -126.65690613 36.75495505 C-123.04242929 36.76628945 -119.42796607 36.76216051 -115.81347656 36.76020813 C-109.74409345 36.75932578 -103.67482216 36.77039311 -97.60546875 36.78881836 C-90.59299818 36.80998511 -83.58069139 36.81349551 -76.56819534 36.8072564 C-69.81655978 36.8015574 -63.06498176 36.80721472 -56.31335449 36.81842995 C-53.44265679 36.82306884 -50.57199437 36.82395286 -47.70129395 36.8218441 C-43.6914007 36.81960697 -39.68173588 36.83408517 -35.671875 36.8503418 C-34.4821106 36.84786438 -33.29234619 36.84538696 -32.06652832 36.84283447 C-30.426297 36.85346169 -30.426297 36.85346169 -28.75292969 36.86430359 C-27.80536804 36.86635646 -26.8578064 36.86840933 -25.88153076 36.87052441 C-23.02430886 37.1468249 -20.85079475 37.93838625 -18.25 39.125 C-18.0334375 37.701875 -18.0334375 37.701875 -17.8125 36.25 C-17.25 33.125 -17.25 33.125 -16.25 31.125 C-16.15327168 29.14775939 -16.12020097 27.1670994 -16.125 25.1875 C-16.12242187 24.12660156 -16.11984375 23.06570312 -16.1171875 21.97265625 C-16.12430654 19.04926943 -16.12430654 19.04926943 -17.25 16.125 C-23.77445135 13.3646552 -30.54727053 15.49438822 -36.859375 17.72265625 C-44.85675589 21.03032876 -52.56490251 25.21334632 -59.6875 30.125 C-63.58283812 32.68479362 -66.67481593 32.53349858 -71.25 32.125 C-57.81802456 18.30298535 -20.66391369 -11.92148867 0 0 Z " fill="#15385D" transform="translate(217.25,9.875)"/>
<path d="M0 0 C0.33 0 0.66 0 1 0 C1.09278723 9.41432711 1.16380901 18.82849618 1.20724869 28.24318123 C1.22810038 32.61508491 1.25637342 36.98667514 1.30175781 41.35839844 C1.34530247 45.57944687 1.3691553 49.80019429 1.37950897 54.02145004 C1.38688494 55.62978731 1.40128867 57.23810859 1.42292023 58.84631729 C1.45207012 61.10379547 1.45595137 63.36003889 1.45410156 65.61767578 C1.46298401 66.90118927 1.47186646 68.18470276 1.48101807 69.5071106 C0.89934111 73.73092966 -0.2262049 75.7776375 -3 79 C-7.33367108 81.84566257 -10.70176203 82.36961267 -15.83154297 82.34057617 C-16.48590836 82.34101425 -17.14027374 82.34145233 -17.81446838 82.34190369 C-19.9573549 82.33982915 -22.09943926 82.31656327 -24.2421875 82.29296875 C-25.73576429 82.287368 -27.22934662 82.28310016 -28.72293091 82.28010559 C-32.63899156 82.26869441 -36.55471424 82.23925991 -40.47064209 82.20599365 C-44.47256906 82.17521194 -48.47455106 82.16158301 -52.4765625 82.14648438 C-60.3178628 82.11438612 -68.15888926 82.06323553 -76 82 C-73.22509504 79.21958157 -70.45287819 76.44708622 -67.58203125 73.765625 C-66.97238525 73.19602051 -66.36273926 72.62641602 -65.73461914 72.03955078 C-65.10031982 71.44899902 -64.46602051 70.85844727 -63.8125 70.25 C-63.15048584 69.63237793 -62.48847168 69.01475586 -61.80639648 68.37841797 C-58.0924848 64.92124493 -54.35045149 61.50121763 -50.5625 58.125 C-44.2920317 52.50857061 -38.4458437 46.63047316 -32.96484375 40.2421875 C-31.06833114 38.07797629 -29.11622507 35.97401167 -27.14916992 33.87402344 C-17.86007273 23.92199817 -9.72509386 13.09861547 -1.6796875 2.1328125 C-1.12539062 1.42898437 -0.57109375 0.72515625 0 0 Z " fill="#22AFE4" transform="translate(203,65)"/>
<path d="M0 0 C1.39049272 0.04527865 2.78113014 0.08631946 4.171875 0.12304688 C7.53504821 0.22814604 10.89056572 0.37533152 14.25 0.5625 C14.7491884 1.97847256 15.24129891 3.39694149 15.73046875 4.81640625 C16.00528076 5.6060376 16.28009277 6.39566895 16.56323242 7.20922852 C17.50121175 10.42329988 17.58859767 13.24424284 17.25 16.5625 C14.56039817 19.25210183 12.47892482 18.81209163 8.8236084 18.84039307 C7.94338013 18.8363446 7.06315186 18.83229614 6.15625 18.828125 C4.8025531 18.83099518 4.8025531 18.83099518 3.42150879 18.83392334 C1.51163454 18.83528559 -0.39824896 18.83158638 -2.30810547 18.82324219 C-5.2381665 18.81254321 -8.16761438 18.82313611 -11.09765625 18.8359375 C-12.95052219 18.83461591 -14.80338775 18.83205353 -16.65625 18.828125 C-17.97659241 18.83419769 -17.97659241 18.83419769 -19.3236084 18.84039307 C-25.5200834 18.7924166 -25.5200834 18.7924166 -27.75 16.5625 C-28.18847656 13.24389648 -28.18847656 13.24389648 -27.75 9.5625 C-20.38729554 0.20464495 -11.28790478 -0.64840204 0 0 Z " fill="#21AEE4" transform="translate(134.75,152.4375)"/>
<path d="M0 0 C0 3 0 3 -1.3125 4.38671875 C-2.875 5.59114583 -4.4375 6.79557292 -6 8 C-5.65120368 4.74456771 -4.97866739 3.98126893 -2.4375 1.75 C-1.633125 1.1725 -0.82875 0.595 0 0 Z " fill="#37B4E3" transform="translate(113,157)"/>
</svg>
